<?xml version="1.0" standalone="no"?>
<!DOCTYPE svg PUBLIC "-//W3C//DTD SVG 20010904//EN"
 "http://www.w3.org/TR/2001/REC-SVG-20010904/DTD/svg10.dtd">
<svg version="1.0" xmlns="http://www.w3.org/2000/svg"
 width="2000.000000pt" height="2000.000000pt" viewBox="0 0 2000.000000 2000.000000"
 preserveAspectRatio="xMidYMid meet">

<g transform="translate(0.000000,2000.000000) scale(0.100000,-0.100000)"
fill="#ffffff" stroke="none">
<path d="M10480 12351 l0 -1539 35 -4 c20 -2 38 -2 40 1 3 2 5 697 5 1543 l0
1538 -40 0 -40 0 0 -1539z"/>
<path d="M7111 13059 c-218 -24 -395 -76 -586 -169 -487 -239 -773 -688 -814
-1281 -18 -247 8 -478 79 -721 l23 -78 1361 1 1361 1 -45 20 c-143 66 -484
160 -875 243 -465 98 -703 176 -907 297 -251 149 -358 385 -327 721 28 294
157 520 388 676 156 106 311 151 551 158 194 6 336 -14 492 -71 491 -178 858
-679 1061 -1451 l32 -120 68 -3 67 -3 0 841 0 840 -65 0 -64 0 -6 -37 c-29
-179 -80 -238 -214 -250 -105 -9 -159 9 -426 142 -262 131 -437 197 -605 230
-102 20 -426 28 -549 14z"/>
<path d="M11539 12948 c-1 -2 -3 -31 -3 -65 l-2 -63 303 0 303 0 0 -1007 0
-1008 580 0 580 0 0 1008 0 1007 303 0 303 0 0 63 -1 62 -1182 3 c-651 1
-1184 1 -1184 0z"/>
<path d="M3145 10546 c-57 -25 -82 -74 -63 -127 12 -34 41 -51 133 -80 84 -26
108 -66 65 -109 -28 -28 -100 -27 -151 2 -36 20 -41 20 -55 6 -14 -14 -13 -17
14 -37 74 -52 188 -48 236 10 61 72 20 142 -103 179 -81 25 -111 53 -92 89 24
43 105 47 167 6 21 -14 24 -13 33 4 12 22 2 33 -52 56 -44 18 -92 19 -132 1z"/>
<path d="M3850 10544 c-46 -20 -68 -41 -92 -88 -41 -81 -17 -207 49 -254 94
-67 229 -39 280 57 40 77 24 202 -33 253 -52 46 -140 60 -204 32z m148 -50
c87 -56 82 -226 -8 -271 -14 -7 -47 -13 -73 -13 -42 0 -54 5 -82 33 -79 79
-63 215 30 258 44 21 93 18 133 -7z"/>
<path d="M5964 10535 c-67 -34 -97 -80 -102 -160 -4 -66 10 -107 52 -153 64
-72 179 -78 256 -14 l34 29 -23 13 c-14 7 -26 8 -30 3 -16 -24 -59 -43 -100
-43 -85 0 -141 61 -141 155 0 78 44 134 118 150 25 5 45 1 86 -19 62 -31 99
-27 69 6 -28 31 -88 58 -131 58 -21 0 -60 -11 -88 -25z"/>
<path d="M7164 10550 c-39 -12 -95 -69 -110 -112 -35 -96 4 -211 86 -253 130
-66 279 27 280 176 0 61 -39 137 -86 167 -41 27 -121 37 -170 22z m108 -40
c77 -22 118 -125 84 -215 -21 -54 -66 -85 -125 -85 -57 0 -97 23 -121 70 -46
91 -9 204 76 230 39 11 44 11 86 0z"/>
<path d="M9275 10546 c-57 -25 -82 -74 -63 -127 12 -34 38 -50 122 -74 91 -27
120 -71 76 -115 -29 -29 -106 -27 -153 4 -34 23 -36 24 -52 6 -15 -17 -14 -19
13 -39 103 -73 262 -28 262 75 0 52 -40 87 -129 114 -81 25 -111 53 -92 89 23
43 105 47 165 7 20 -13 24 -12 34 4 13 22 4 32 -51 55 -44 18 -92 19 -132 1z"/>
<path d="M12325 10552 c-107 -35 -164 -164 -120 -270 33 -77 91 -115 175 -115
63 0 106 19 143 63 52 61 60 149 21 227 -20 42 -35 57 -77 77 -49 25 -100 31
-142 18z m136 -63 c57 -41 74 -129 40 -206 -45 -99 -197 -99 -244 0 -31 64
-16 158 31 200 44 40 122 43 173 6z"/>
<path d="M16375 10541 c-100 -46 -143 -164 -96 -267 23 -51 71 -89 134 -105
59 -14 110 -2 158 38 28 24 30 28 14 39 -14 10 -23 8 -52 -12 -99 -67 -223 6
-223 131 0 122 140 195 229 120 20 -18 31 -21 45 -13 17 9 16 11 -6 35 -50 53
-132 67 -203 34z"/>
<path d="M17754 10546 c-40 -18 -64 -52 -64 -92 0 -51 32 -81 113 -106 107
-32 134 -68 89 -120 -24 -28 -110 -24 -155 7 -35 23 -37 23 -47 6 -26 -49 112
-97 195 -68 49 17 77 54 77 101 0 51 -24 81 -79 101 -128 45 -138 50 -141 76
-7 59 96 86 157 41 28 -21 51 -15 51 13 0 38 -139 67 -196 41z"/>
<path d="M4520 10360 l0 -190 115 0 c108 0 115 1 115 20 0 19 -7 20 -90 20
l-90 0 0 170 0 170 -25 0 -25 0 0 -190z"/>
<path d="M5140 10413 c0 -158 11 -193 70 -228 44 -25 137 -26 175 -1 56 37 65
68 65 224 l0 142 -25 0 -25 0 0 -141 0 -141 -29 -29 c-24 -24 -38 -29 -76 -29
-38 0 -52 5 -76 29 l-29 29 0 141 0 141 -25 0 -25 0 0 -137z"/>
<path d="M6590 10360 l0 -190 25 0 25 0 0 190 0 190 -25 0 -25 0 0 -190z"/>
<path d="M7821 10360 l0 -190 24 0 25 0 0 151 c0 82 4 148 8 145 5 -3 55 -71
113 -151 81 -113 109 -145 126 -145 l23 0 0 190 0 190 -25 0 -24 0 -3 -144 -3
-144 -104 144 c-91 127 -107 144 -132 144 l-28 0 0 -190z"/>
<path d="M8560 10360 l0 -190 125 0 c118 0 125 1 125 20 0 19 -7 20 -100 20
l-100 0 0 65 0 64 98 3 c89 3 97 5 97 23 0 18 -8 20 -97 23 l-98 3 0 59 0 60
100 0 c93 0 100 1 100 20 0 19 -7 20 -125 20 l-125 0 0 -190z"/>
<path d="M10360 10360 l0 -191 23 3 c22 3 22 4 22 188 0 184 0 185 -22 188
l-23 3 0 -191z"/>
<path d="M10822 10363 c3 -186 3 -188 25 -191 22 -3 22 -2 25 150 l3 153 110
-152 c86 -119 115 -153 133 -153 l22 0 0 190 0 190 -25 0 -24 0 -3 -144 -3
-144 -104 144 c-92 127 -108 144 -133 144 l-28 0 2 -187z"/>
<path d="M11560 10360 l0 -190 25 0 c25 0 25 1 25 85 l0 84 98 3 c89 3 97 5
97 23 0 18 -8 20 -97 23 l-98 3 0 59 0 60 100 0 c93 0 100 1 100 20 0 19 -7
20 -125 20 l-125 0 0 -190z"/>
<path d="M12970 10360 l0 -190 25 0 c24 0 25 2 25 75 l0 75 39 0 c38 0 41 -2
87 -75 41 -65 51 -75 76 -75 l29 0 -52 76 c-28 42 -49 76 -47 77 1 1 17 9 33
17 17 8 38 33 49 54 16 32 17 44 7 76 -20 67 -48 80 -167 80 l-104 0 0 -190z
m205 125 c28 -27 30 -42 14 -78 -15 -33 -49 -47 -114 -47 l-55 0 0 75 0 75 65
0 c57 0 69 -3 90 -25z"/>
<path d="M13650 10360 l0 -190 25 0 25 0 0 158 1 157 64 -155 c35 -85 69 -155
75 -155 6 0 39 68 73 152 l62 152 3 -155 3 -154 24 0 25 0 0 190 0 190 -37 0
-38 0 -55 -140 c-30 -77 -57 -140 -60 -140 -3 0 -30 63 -60 140 l-55 139 -37
1 -38 0 0 -190z"/>
<path d="M14557 10543 c-8 -13 -147 -360 -147 -367 0 -3 11 -6 24 -6 18 0 27
9 40 40 10 24 23 40 33 41 10 1 54 2 97 3 l79 1 19 -42 c15 -34 24 -43 43 -43
14 0 25 1 25 3 0 1 -33 86 -74 187 -72 179 -75 185 -104 188 -17 2 -32 -1 -35
-5z m77 -147 c20 -50 36 -91 36 -93 0 -2 -36 -3 -81 -3 -73 0 -80 2 -75 18 40
107 72 180 78 174 3 -4 22 -47 42 -96z"/>
<path d="M15130 10530 c0 -18 7 -20 60 -20 l60 0 0 -170 c0 -170 0 -170 23
-170 22 0 22 0 22 168 l0 167 63 3 c54 3 62 6 62 22 0 19 -8 20 -145 20 -138
0 -145 -1 -145 -20z"/>
<path d="M15810 10360 l0 -190 25 0 25 0 0 190 0 190 -25 0 -25 0 0 -190z"/>
<path d="M17028 10360 l-76 -190 28 0 c24 0 30 6 40 35 15 46 31 53 115 49 39
-2 78 -3 87 -3 11 -1 21 -15 29 -41 10 -34 16 -40 40 -40 l29 0 -19 48 c-136
343 -131 332 -165 332 l-31 0 -77 -190z m154 33 l36 -93 -79 0 c-43 0 -79 3
-79 7 0 21 74 193 80 186 4 -4 23 -50 42 -100z"/>
<path d="M7291 9866 c2 -2 103 -30 224 -61 337 -87 471 -133 647 -220 294
-147 447 -343 499 -641 20 -113 6 -378 -25 -499 -57 -223 -189 -416 -371 -542
-97 -68 -258 -130 -410 -160 -108 -21 -376 -23 -475 -5 -270 51 -526 191 -753
410 -351 342 -600 824 -767 1490 l-11 42 -64 0 -65 0 0 -990 0 -990 64 0 64 0
7 47 c15 99 85 191 162 212 53 15 167 13 238 -4 33 -7 132 -39 220 -69 88 -30
246 -84 350 -120 223 -77 463 -139 616 -161 204 -28 485 -16 686 30 229 52
459 163 643 310 146 117 314 325 402 499 85 169 160 416 193 636 33 220 30
574 -6 741 l-11 49 -1030 0 c-567 0 -1029 -2 -1027 -4z"/>
<path d="M10480 7990 l0 -1880 40 0 40 0 0 1880 0 1880 -40 0 -40 0 0 -1880z"/>
<path d="M12140 8855 l0 -1015 -305 0 -305 0 1 -65 1 -65 1188 0 1188 0 1 65
1 65 -305 0 -305 0 0 1015 0 1015 -580 0 -580 0 0 -1015z"/>
</g>
</svg>
